<?xml version="1.0" standalone="no"?>
<!DOCTYPE svg PUBLIC "-//W3C//DTD SVG 20010904//EN"
 "http://www.w3.org/TR/2001/REC-SVG-20010904/DTD/svg10.dtd">
<svg version="1.0" xmlns="http://www.w3.org/2000/svg"
 width="1024.000000pt" height="1024.000000pt" viewBox="0 0 1024.000000 1024.000000"
 preserveAspectRatio="xMidYMid meet">

<g transform="translate(0.000000,1024.000000) scale(0.100000,-0.100000)"
fill="#000000" stroke="none">
<path d="M2389 8699 c-9 -23 -14 -68 -13 -135 1 -91 4 -109 31 -165 31 -66
105 -167 218 -299 35 -41 76 -95 91 -120 15 -25 41 -60 57 -79 16 -19 45 -57
63 -85 18 -28 54 -78 78 -111 24 -33 69 -96 100 -140 31 -44 85 -120 121 -170
69 -96 129 -181 157 -224 9 -14 22 -32 28 -39 6 -7 47 -65 91 -130 122 -178
186 -271 317 -457 66 -93 156 -225 199 -292 43 -68 83 -123 90 -123 6 0 22 17
34 38 13 20 49 71 79 112 617 825 845 1128 895 1192 33 42 85 111 115 152 30
42 58 76 62 76 8 0 597 -788 883 -1180 54 -74 120 -164 146 -200 27 -36 106
-144 178 -240 l129 -175 -254 -3 -254 -2 0 -1093 c0 -1178 -2 -1135 51 -1236
24 -46 94 -121 146 -155 116 -76 307 -71 360 11 19 29 131 177 193 253 20 25
79 99 131 165 52 66 147 185 210 265 63 80 157 201 209 269 52 68 136 174 185
236 50 63 118 149 153 193 l62 81 0 1623 c0 1591 -1 1625 -20 1707 -30 125
-80 211 -180 311 -82 83 -146 124 -234 152 -115 37 -106 37 -2465 37 -1262 1
-2324 4 -2361 7 l-67 7 -14 -34z"/>
<path d="M2276 7702 c1 -48 2 -680 3 -1405 1 -856 5 -1316 11 -1312 6 3 10 -2
10 -12 0 -14 2 -15 9 -5 7 11 9 11 14 -2 4 -9 12 -16 19 -16 10 0 10 2 0 9
-11 6 -9 9 7 14 11 3 20 2 19 -2 -2 -18 3 -22 16 -12 10 9 16 9 21 1 5 -8 11
-7 23 2 12 10 14 10 8 0 -8 -13 32 -34 47 -25 4 3 14 -1 22 -7 11 -9 15 -9 15
-1 0 8 4 8 14 -1 14 -13 11 -32 -3 -23 -5 2 -17 -3 -27 -11 -18 -15 -18 -15 0
-10 11 4 24 0 32 -11 12 -15 13 -15 8 -2 -3 10 1 19 10 22 9 4 16 2 16 -3 0
-5 10 -7 21 -5 12 3 19 2 16 -2 -4 -3 1 -19 9 -35 15 -28 16 -29 30 -11 9 10
13 12 9 6 -4 -9 1 -13 14 -13 12 0 21 -5 21 -11 0 -5 -5 -7 -12 -3 -7 4 -8 3
-4 -5 6 -9 11 -9 22 0 8 6 21 8 31 4 10 -5 22 -7 27 -6 5 1 3 -6 -5 -15 -12
-15 -12 -17 1 -12 9 3 14 16 13 34 -2 25 -1 26 8 11 6 -10 8 -24 6 -31 -6 -14
11 -36 26 -36 5 0 7 7 3 15 -4 11 1 15 19 15 17 0 25 -5 24 -17 0 -11 -3 -13
-6 -5 -7 18 -19 15 -20 -5 -1 -13 6 -18 22 -18 13 0 23 2 22 5 -1 3 3 6 8 6
17 2 35 -7 35 -18 0 -7 -5 -6 -14 1 -11 9 -15 7 -19 -8 -3 -14 -1 -18 9 -14 8
3 14 -1 14 -8 1 -9 8 -6 19 8 10 12 22 19 26 15 10 -10 29 -9 37 3 5 5 5 -5 2
-22 -6 -29 -4 -33 15 -33 12 0 21 -6 21 -16 0 -9 5 -12 12 -8 8 5 9 2 5 -10
-4 -11 -3 -15 4 -11 6 4 16 -1 24 -11 7 -11 17 -16 21 -11 4 4 2 7 -4 7 -7 0
-12 5 -12 11 0 5 5 7 12 3 7 -4 8 -3 4 4 -4 7 -14 12 -22 12 -8 0 -14 9 -13
23 1 13 3 16 6 7 2 -8 19 -22 38 -31 19 -9 32 -12 28 -6 -3 6 -1 7 6 3 7 -4
11 -17 9 -28 -2 -12 3 -23 10 -25 6 -3 12 1 12 9 0 8 10 13 25 13 30 -2 39
-10 30 -25 -6 -9 -10 -9 -16 1 -6 10 -9 10 -9 2 0 -17 17 -25 26 -12 4 8 9 7
15 -2 7 -11 9 -10 9 4 0 9 4 17 9 17 15 0 23 -18 11 -25 -6 -4 -4 -12 5 -22
10 -10 20 -12 28 -6 16 12 57 14 57 3 0 -5 -8 -7 -19 -5 -14 3 -18 -1 -14 -16
3 -10 14 -19 24 -19 11 0 19 -5 19 -11 0 -5 -5 -7 -12 -3 -7 4 -8 3 -4 -5 10
-15 29 -3 22 15 -3 8 0 14 7 15 7 0 20 2 30 4 9 2 15 -1 11 -6 -3 -5 -10 -6
-16 -3 -6 4 -3 -4 7 -18 11 -13 24 -25 30 -25 5 0 19 -4 30 -8 11 -4 15 -3 9
2 -19 15 -23 41 -7 47 9 4 18 4 21 1 3 -3 0 -5 -6 -5 -7 0 -12 -4 -12 -10 0
-5 3 -9 8 -9 22 4 30 -3 25 -21 -3 -12 0 -20 6 -20 7 0 9 5 6 10 -3 6 -1 10 4
10 6 0 11 -8 12 -17 0 -11 3 -13 6 -5 9 22 21 13 29 -20 4 -18 9 -27 11 -20 3
6 9 10 13 7 5 -3 16 5 24 17 12 17 18 20 28 10 9 -9 8 -12 -5 -12 -9 0 -17 -4
-17 -9 0 -11 19 -9 40 4 13 8 13 6 2 -8 -12 -14 -10 -17 13 -23 19 -5 30 -1
41 12 14 18 15 18 5 -3 -6 -12 -16 -23 -23 -25 -8 -3 -6 -7 5 -11 9 -3 17 -2
17 4 0 6 4 8 9 4 5 -3 13 0 17 6 5 8 3 9 -6 4 -8 -5 -11 -4 -6 3 4 6 13 9 22
5 12 -4 12 -8 2 -21 -11 -13 -10 -14 9 -4 31 17 40 15 17 -4 -18 -15 -18 -15
9 -11 17 3 34 -2 44 -11 14 -14 17 -14 28 1 6 9 15 14 18 11 3 -3 -6 -16 -20
-28 -24 -21 -24 -22 -4 -23 14 -1 19 3 15 10 -3 7 4 1 15 -12 13 -15 21 -18
21 -9 0 9 12 14 35 15 19 0 35 -3 35 -8 0 -9 -15 -13 -40 -9 -8 1 -12 -1 -8
-5 10 -10 58 -13 52 -4 -3 5 4 9 16 9 18 0 19 -3 9 -22 -10 -18 -9 -20 6 -15
16 7 115 -20 115 -30 0 -3 -7 -2 -16 1 -9 3 -12 2 -8 -5 3 -6 15 -9 25 -6 11
3 17 1 13 -4 -8 -13 10 -11 25 3 11 10 13 10 7 1 -5 -8 -1 -13 9 -13 9 0 14 4
11 9 -3 5 2 15 12 22 15 12 16 12 4 -2 -13 -18 -5 -30 31 -42 9 -4 21 -16 26
-28 6 -19 9 -20 14 -6 4 10 11 17 17 17 7 0 7 -7 -1 -22 -12 -22 -11 -22 8 -5
24 21 33 22 33 2 0 -8 7 -15 15 -15 8 0 15 5 15 10 0 6 -5 10 -12 10 -6 0 -9
2 -7 5 3 2 15 2 27 -2 29 -7 29 -33 0 -33 -21 0 -21 0 -2 -14 11 -8 23 -11 29
-6 11 9 37 -2 36 -14 -2 -16 0 -18 13 -7 11 9 15 9 19 -1 3 -7 6 -2 7 12 1 24
1 24 10 3 6 -16 15 -20 32 -17 18 3 19 3 5 -4 -16 -7 -16 -9 -2 -27 9 -12 13
-14 10 -5 -6 19 25 20 65 3 14 -6 29 -8 34 -5 5 3 7 -2 3 -11 -4 -11 -1 -17 8
-17 7 0 17 9 20 21 6 19 8 17 23 -13 12 -23 23 -32 37 -30 11 2 28 3 37 3 10
0 20 4 23 10 4 5 11 9 17 9 6 0 1 -9 -12 -20 -19 -17 -20 -21 -7 -26 10 -3 13
-12 9 -22 -5 -16 -5 -16 11 0 19 19 85 17 99 -4 6 -10 10 -10 18 2 8 12 10 12
10 -5 0 -16 2 -17 9 -5 6 8 7 19 4 25 -4 5 -2 6 3 2 5 -5 9 -16 9 -25 0 -14 8
-17 40 -15 22 2 33 -1 25 -5 -8 -4 -16 -14 -18 -22 -3 -12 -1 -12 9 -3 12 12
39 7 51 -11 8 -12 40 -18 32 -5 -3 5 4 9 15 9 11 0 23 -5 27 -12 4 -6 3 -8 -4
-4 -6 3 -13 2 -16 -3 -11 -17 10 -20 36 -7 24 13 26 12 23 -9 -1 -16 2 -22 11
-18 8 3 12 8 10 12 -2 3 2 11 9 18 10 9 17 4 31 -22 12 -23 21 -30 26 -22 4 6
2 15 -5 19 -8 5 -6 8 6 8 9 0 17 -4 17 -10 0 -5 7 -10 15 -10 8 0 15 -4 15
-10 0 -5 -6 -7 -14 -4 -11 4 -13 0 -9 -15 3 -12 10 -24 16 -28 7 -4 8 0 3 12
-6 16 -4 16 11 4 11 -9 14 -10 9 -1 -4 7 -2 12 6 12 7 0 0 12 -15 25 -15 14
-23 25 -17 25 8 0 7 5 -2 14 -7 8 -23 30 -36 48 -13 18 -64 92 -114 163 -51
72 -119 169 -152 217 -34 47 -99 140 -145 205 -46 65 -113 159 -147 208 -35
50 -84 119 -109 155 -41 57 -114 160 -348 493 -34 48 -71 102 -82 120 -10 18
-56 84 -101 147 -44 63 -106 151 -136 195 -55 79 -98 142 -299 430 -57 83
-116 166 -129 186 -14 20 -62 88 -106 150 -119 167 -190 267 -231 329 -20 30
-65 92 -100 138 -34 45 -63 85 -63 88 0 3 -30 49 -68 103 -37 53 -75 107 -84
121 -10 14 -60 84 -113 155 -52 72 -118 165 -146 208 l-51 77 -132 0 -131 0 1
-88z m364 -2837 c0 -8 -4 -15 -10 -15 -5 0 -7 7 -4 15 4 8 8 15 10 15 2 0 4
-7 4 -15z m958 -433 c2 -7 -2 -10 -12 -6 -9 3 -16 11 -16 16 0 13 23 5 28 -10z
m676 -237 c11 -8 16 -15 10 -15 -5 0 -18 7 -28 15 -11 8 -16 15 -10 15 5 0 18
-7 28 -15z m196 -85 c0 -5 -5 -10 -11 -10 -5 0 -7 5 -4 10 3 6 8 10 11 10 2 0
4 -4 4 -10z m250 -100 c0 -5 -5 -10 -11 -10 -5 0 -7 5 -4 10 3 6 8 10 11 10 2
0 4 -4 4 -10z m545 -150 c3 -5 1 -10 -4 -10 -6 0 -11 5 -11 10 0 6 2 10 4 10
3 0 8 -4 11 -10z"/>
<path d="M4181 5878 c14 -27 187 -289 200 -302 5 -6 9 61 9 157 l0 167 -110 0
-111 0 12 -22z"/>
<path d="M2281 4954 c0 -11 3 -14 6 -6 3 7 2 16 -1 19 -3 4 -6 -2 -5 -13z"/>
<path d="M2430 4925 c7 -9 15 -13 18 -10 3 3 11 0 19 -7 10 -8 17 -8 24 -1 8
8 7 13 0 17 -6 4 -11 2 -11 -4 0 -7 -9 -5 -22 4 -29 20 -44 21 -28 1z"/>
<path d="M2579 4879 c-8 -23 -3 -56 7 -52 7 2 11 14 9 25 -4 20 -14 36 -16 27z"/>
<path d="M2721 4794 c0 -11 3 -14 6 -6 3 7 2 16 -1 19 -3 4 -6 -2 -5 -13z"/>
<path d="M2770 4751 c0 -6 4 -13 10 -16 6 -3 7 1 4 9 -7 18 -14 21 -14 7z"/>
<path d="M2941 4712 c-1 -7 -5 -10 -11 -7 -5 3 -10 2 -10 -3 0 -10 23 -22 41
-22 5 0 9 10 9 23 0 16 -3 18 -9 8 -7 -11 -9 -11 -14 0 -4 11 -6 11 -6 1z"/>
<path d="M3621 4400 c-9 -5 -5 -9 10 -13 28 -7 31 -6 14 10 -6 6 -18 8 -24 3z"/>
<path d="M4231 4154 c0 -11 3 -14 6 -6 3 7 2 16 -1 19 -3 4 -6 -2 -5 -13z"/>
<path d="M4729 3963 c-13 -16 -12 -17 4 -4 9 7 17 15 17 17 0 8 -8 3 -21 -13z"/>
<path d="M4865 3939 c-4 -6 -5 -12 -2 -15 2 -3 7 2 10 11 7 17 1 20 -8 4z"/>
<path d="M5023 3875 c0 -7 6 -11 14 -8 7 3 13 6 13 8 0 2 -6 5 -13 8 -8 3 -14
-1 -14 -8z"/>
<path d="M5210 3830 c0 -5 5 -10 10 -10 6 0 10 5 10 10 0 6 -4 10 -10 10 -5 0
-10 -4 -10 -10z"/>
<path d="M5315 3750 c-3 -5 -1 -10 4 -10 6 0 11 5 11 10 0 6 -2 10 -4 10 -3 0
-8 -4 -11 -10z"/>
<path d="M10080 80 l0 -80 80 0 80 0 0 80 0 80 -80 0 -80 0 0 -80z"/>
</g>
</svg>
